
    <svg id="svg_root" viewBox="0 0 300 300" xmlns="http://www.w3.org/2000/svg">
      <rect id="svg_frame" width="300" height="300" style="fill:none;stroke-width:10" stroke="none"></rect>
      <!-- <circle id="svg_circle_frame" cx="150" cy="150" r="148" style="fill:none;stroke-width:5" stroke="black"/> -->
      <g transform="translate(8, 40)">
        <g transform="matrix(1.3333333,0,0,-1.3333333,0,199.99999)" id="g10">
          <g transform="scale(0.095)">
            <path id="svg_logo" fill="#ffffff" style="fill-opacity:1;fill-rule:nonzero;stroke:none;stroke-width:0.79978472" d="m 1735.94,608.49687 c 0,38.89593 40.941,53.21687 107.491,60.38695 55.2652,6.13914 99.2853,15.35507 127.9496,33.7789 v -49.13077 c 0,-58.64022 -49.3706,-87.16455 -115.2809,-93.67799 -26.8888,2.49933 -55.0253,4.84269 -84.2414,6.98213 -22.7299,8.66966 -35.9183,23.40009 -35.9183,41.66078 z M 461.48704,591.09515 h 283.55808 l 23.26574,-68.80948 C 646.26531,500.07325 524.76681,470.81552 407.55436,433.93505 Z M 602.76101,1008.7364 702.04709,716.99567 H 503.45974 Z M 1233.3232,862.35414 c 74.732,0 135.1237,-67.56661 135.1237,-151.49682 0,-59.35602 -31.7914,-110.48307 -77.6991,-134.22627 -34.5746,-1.15649 -69.5972,-2.74967 -104.9637,-4.81151 -51.1783,20.68164 -87.5764,73.93291 -87.5764,139.03778 0,85.98246 60.3917,151.49682 135.1155,151.49682 z m 864.1035,-333.2423 c -0.072,1.93708 -0.1439,3.85896 -0.1439,5.67047 v 274.34536 c 0,41.96311 -16.3717,180.15792 -230.3141,180.15792 -138.1948,0 -234.4248,-74.7271 -247.7333,-175.0441 h 135.1316 c 12.2848,45.04468 67.5659,66.5389 115.6809,66.5389 60.3838,0 96.2061,-22.52513 96.2061,-50.15851 0,-42.98843 -62.4392,-53.23607 -150.4715,-61.42107 -116.6886,-10.23163 -215.9899,-40.94257 -215.9899,-159.68821 0,-11.79363 1.1837,-22.90024 3.2552,-33.4598 -32.3513,1.17169 -65.5504,2.03066 -99.4852,2.53052 V 1210.3941 H 1368.4469 V 925.81466 c -40.941,38.90154 -94.1826,61.42347 -155.5981,61.42347 -137.1711,0 -250.79646,-118.73604 -250.79646,-275.36588 0,-58.3403 16.0277,-111.482 43.24426,-155.14225 -33.88676,-3.7182 -67.91766,-7.96666 -102.02046,-12.74697 L 688.73788,1159.2078 H 517.79029 L 245.16046,376.71605 C 165.53549,345.41168 88.946415,310.13957 16.762722,270.71018 366.24067,423.18755 1228.0367,629.60079 2203.4541,503.15082 c -4.6546,5.16981 -42.4765,15.02716 -106.0274,25.96102"></path>
          </g>
        </g>
      </g>
      <g id="svg_subtext" fill="#ffffff" transform="translate(49, 244) scale(1) "><path d="M9-11C5-11 3-9 3-5C3-2 5 1 9 1C12 1 15-2 15-5C15-9 12-11 9-11ZM32-53L22-53L22-12C22-10 22-8 22-6C22-1 25 1 30 1C32 1 34 0 36 0L36-7C33-6 32-7 32-9C32-10 32-11 32-13ZM66 0L75 0C75-4 75-7 75-10L75-22C75-24 74-26 74-28C74-35 70-39 59-39C50-39 43-34 43-26L52-26C52-30 55-32 59-32C62-32 64-30 65-28C65-26 65-25 65-24L65-23L62-23C48-23 41-19 41-10C41-3 47 1 53 1C57 1 60 0 63-2L65-6ZM57-6C54-6 51-8 51-11C51-16 57-18 65-17L65-14C65-9 61-6 57-6ZM119-29C119-35 114-39 106-39C102-39 99-39 97-37L94-32L94-38L84-38L84 0L94 0L94-17C94-28 97-32 102-32C107-32 109-30 110-26C110-24 110-22 110-20L110 0L120 0L120-22C120-25 120-27 119-29ZM166-38L156-38L156-33L153-37C151-39 147-39 144-39C134-39 126-33 126-19C126-7 133 0 143 0C147 0 151-1 153-2L156-7L156-6C156-4 156-3 156-1C155 5 152 8 145 8C140 8 137 6 137 2L137 2L127 2L127 2C128 11 134 16 145 16C157 16 165 10 166-2C166-4 166-7 166-10ZM146-7C140-7 136-12 136-20C136-28 140-32 146-32C151-32 156-29 156-21L156-20C156-10 151-7 146-7ZM179-11C176-11 173-9 173-5C173-2 176 1 179 1C183 1 185-2 185-5C185-9 183-11 179-11ZM197-53C194-53 192-50 192-47C192-44 194-42 197-42C201-42 203-44 203-47C203-50 201-53 197-53ZM202 0L202-38L193-38L193 0ZM229-39C216-39 209-31 209-19C209-8 216 1 229 1C242 1 249-8 249-19C249-31 242-39 229-39ZM229-6C223-6 219-11 219-19C219-27 223-32 229-32C235-32 239-27 239-19C239-11 235-6 229-6Z"></path></g>
    </svg>
  