<?xml version="1.0" encoding="UTF-8" standalone="no"?>
<!-- Created with Inkscape (http://www.inkscape.org/) -->

<svg
   xmlns:dc="http://purl.org/dc/elements/1.1/"
   xmlns:cc="http://creativecommons.org/ns#"
   xmlns:rdf="http://www.w3.org/1999/02/22-rdf-syntax-ns#"
   xmlns:svg="http://www.w3.org/2000/svg"
   xmlns="http://www.w3.org/2000/svg"
   xmlns:sodipodi="http://sodipodi.sourceforge.net/DTD/sodipodi-0.dtd"
   xmlns:inkscape="http://www.inkscape.org/namespaces/inkscape"
   width="180.39252mm"
   height="179.48758mm"
   viewBox="0 0 180.39252 179.48757"
   version="1.1"
   id="svg8"
   inkscape:version="0.92.5 (2060ec1f9f, 2020-04-08)"
   sodipodi:docname="ada_logo.svg"
   inkscape:export-filename="/home/henley/awesome_ada_2.png"
   inkscape:export-xdpi="104.12469"
   inkscape:export-ydpi="104.12469"
   style="enable-background:new">
  <defs
     id="defs2">
    <inkscape:path-effect
       effect="skeletal"
       id="path-effect4711"
       is_visible="true"
       pattern="m 123.5613,90.268063 c 2.24703,0.755669 2.8149,-1.364419 3.99006,-2.812357 l 3.697,-1.009385 -0.67581,1.797398 c -1.69273,0.969956 0.81127,1.568194 0.80117,1.631727 l -0.10783,2.977731 -7.75291,-0.005 z"
       copytype="repeated_stretched"
       prop_scale="1"
       scale_y_rel="false"
       spacing="1"
       normal_offset="0"
       tang_offset="0"
       prop_units="false"
       vertical_pattern="false"
       fuse_tolerance="0" />
    <inkscape:path-effect
       effect="skeletal"
       id="path-effect4680"
       is_visible="true"
       pattern="m -4.3827964,95.407795 c 1.284417,3.059843 2.9594021,2.981795 4.32059514,0.154248 l 1.41670216,-2e-6 -0.02681,4.020286 -7.1279,-7e-6 2e-6,-4.198148"
       copytype="repeated_stretched"
       prop_scale="1"
       scale_y_rel="true"
       spacing="1.6"
       normal_offset="0"
       tang_offset="0"
       prop_units="false"
       vertical_pattern="false"
       fuse_tolerance="0" />
    <inkscape:path-effect
       effect="skeletal"
       id="path-effect946"
       is_visible="true"
       pattern="m -4.3827964,95.407795 c 1.284417,3.059843 2.9594021,2.981795 4.32059514,0.154248 l 1.41670216,-2e-6 -0.02681,4.020286 -7.1279,-7e-6 2e-6,-4.198148"
       copytype="repeated_stretched"
       prop_scale="1"
       scale_y_rel="false"
       spacing="0"
       normal_offset="0"
       tang_offset="0"
       prop_units="false"
       vertical_pattern="false"
       fuse_tolerance="0" />
    <filter
       style="color-interpolation-filters:sRGB"
       inkscape:label="Greyscale"
       id="filter923">
      <feColorMatrix
         values="0.21 0.72 0.072 0 0 0.21 0.72 0.072 0 0 0.21 0.72 0.072 0 0 0 0 0 1 0 "
         id="feColorMatrix921" />
    </filter>
  </defs>
  <sodipodi:namedview
     id="base"
     pagecolor="#ffffff"
     bordercolor="#666666"
     borderopacity="1.0"
     inkscape:pageopacity="0.0"
     inkscape:pageshadow="2"
     inkscape:zoom="0.7"
     inkscape:cx="108.35762"
     inkscape:cy="258.06504"
     inkscape:document-units="mm"
     inkscape:current-layer="layer13"
     showgrid="false"
     inkscape:window-width="1848"
     inkscape:window-height="1016"
     inkscape:window-x="72"
     inkscape:window-y="27"
     inkscape:window-maximized="1"
     inkscape:snap-nodes="false"
     fit-margin-top="10"
     fit-margin-left="10"
     fit-margin-right="10"
     fit-margin-bottom="9.3"
     showguides="true"
     inkscape:guide-bbox="true" />
  <metadata
     id="metadata5">
    <rdf:RDF>
      <cc:Work
         rdf:about="">
        <dc:format>image/svg+xml</dc:format>
        <dc:type
           rdf:resource="http://purl.org/dc/dcmitype/StillImage" />
        <dc:title></dc:title>
      </cc:Work>
    </rdf:RDF>
  </metadata>
  <g
     inkscape:groupmode="layer"
     id="layer21"
     inkscape:label="big_bgd"
     transform="translate(6.7933542,5.4991971)"
     style="display:inline;opacity:1">
    <path
       style="fill:none;fill-opacity:1;stroke:#cdbd8e;stroke-width:49.88000107;stroke-miterlimit:4;stroke-dasharray:none;stroke-opacity:1;enable-background:new"
       d="M 89.114465,132.79279 A 48.989914,48.989914 0 0 1 34.742289,89.854583 48.989914,48.989914 0 0 1 77.680501,35.482413 48.989914,48.989914 0 0 1 132.05267,78.420625 48.989914,48.989914 0 0 1 89.114465,132.79279 Z"
       id="path6777"
       inkscape:connector-curvature="0" />
    <path
       style="display:inline;opacity:1;fill:#000000;fill-opacity:1;stroke:#000000;stroke-width:1.78437221;stroke-miterlimit:4;stroke-dasharray:none;stroke-opacity:1;enable-background:new"
       d="m 91.126093,156.21291 c -2.305634,-0.48625 -2.647879,1.59723 -3.821005,3.12562 -1.263025,0.39514 -2.545063,0.75164 -3.84396,1.06945 0.242735,-0.59096 0.479142,-1.18353 0.709165,-1.77765 1.731611,-0.96162 -0.81117,-1.5596 -0.80035,-1.62245 0.04758,-0.98325 0.09347,-1.96663 0.137656,-2.95013 2.454265,0.0209 4.913611,-0.11361 7.365916,-0.41305 0.08489,0.85606 0.169083,1.71213 0.252578,2.56821 z m -8.78952,0.38521 c -2.194545,-0.8082 -2.826832,1.19093 -4.192859,2.53307 -1.296371,0.21465 -2.607263,0.39142 -3.930523,0.53026 0.320195,-0.55086 0.634604,-1.1038 0.943169,-1.65876 1.839588,-0.71266 -0.586276,-1.65079 -0.566977,-1.71137 0.181739,-0.96454 0.3619,-1.92935 0.540483,-2.89442 2.427033,0.36372 4.87301,0.58292 7.325807,0.64805 -0.03905,0.85111 -0.07875,1.70216 -0.1191,2.55317 z m -8.712514,-0.85318 c -2.061812,-1.09977 -2.959508,0.79548 -4.48898,1.94465 -1.31139,0.0419 -2.63281,0.0467 -3.962107,0.0143 0.38919,-0.50564 0.773134,-1.01383 1.151774,-1.52452 1.91756,-0.46816 -0.366347,-1.71511 -0.339296,-1.77275 0.30601,-0.9341 0.610561,-1.86861 0.91365,-2.80354 2.3681,0.6817 4.769006,1.22975 7.190594,1.63462 -0.154604,0.83584 -0.309815,1.67158 -0.465635,2.50722 z m -8.526757,-2.00646 c -1.907689,-1.36054 -3.045657,0.41047 -4.709369,1.36037 -1.308082,-0.12309 -2.621704,-0.28254 -3.938712,-0.47838 0.449719,-0.4553 0.894733,-0.91363 1.334982,-1.37493 1.965527,-0.22812 -0.151384,-1.75256 -0.11731,-1.80659 0.420395,-0.89193 0.839449,-1.78443 1.257159,-2.67749 2.277465,0.97484 4.601597,1.8269 6.960275,2.54666 -2.3e-5,7e-5 -0.787002,2.43029 -0.787025,2.43036 z m -8.23225,-3.07462 c -1.732504,-1.59029 -3.084949,0.0357 -4.854025,0.78022 -1.28645,-0.28034 -2.573947,-0.59628 -3.860339,-0.94784 0.501782,-0.39984 0.999399,-0.80318 1.492792,-1.20996 1.983489,0.007 0.05861,-1.76317 0.09898,-1.8129 0.524895,-0.83806 1.048565,-1.67682 1.571009,-2.51628 2.155129,1.24312 4.370786,2.37435 6.634851,3.38416 -0.360572,0.77442 -0.721662,1.54862 -1.083269,2.3226 z m -7.828994,-4.05766 c -1.536582,-1.78898 -3.077059,-0.32901 -4.922949,0.2042 -1.24649,-0.42985 -2.489536,-0.89452 -3.726986,-1.39407 0.545379,-0.33926 1.087133,-0.68249 1.625204,-1.02963 1.971446,0.23854 0.263646,-1.74691 0.309579,-1.79168 0.619507,-0.77245 1.237908,-1.54575 1.8552,-2.31989 2.00109,1.48657 4.076571,2.87212 6.214322,4.14712 -0.450985,0.72826 -0.902441,1.45624 -1.35437,2.18395 z m -7.316988,-4.9556 c -1.320198,-1.95665 -3.021712,-0.68347 -4.91614,-0.36768 -1.188204,-0.57161 -2.368472,-1.17728 -3.538655,-1.81706 0.580511,-0.27355 1.157936,-0.55155 1.732218,-0.83394 1.929399,0.46518 0.463713,-1.70379 0.514483,-1.74292 0.704233,-0.69512 1.407478,-1.39123 2.109733,-2.08834 1.815349,1.70517 3.718952,3.3202 5.698686,4.83556 -0.533014,0.67179 -1.066456,1.34325 -1.600325,2.01438 z m -6.696231,-5.76842 c -1.083561,-2.09348 -2.9187,-1.02754 -4.8336,-0.93543 -1.111591,-0.70562 -2.210756,-1.44454 -3.295343,-2.2168 0.607175,-0.20273 1.211806,-0.41039 1.813834,-0.6229 1.857345,0.68735 0.658813,-1.63381 0.713691,-1.66662 0.779074,-0.60607 1.557277,-1.21327 2.334607,-1.82161 1.597907,1.89892 3.29793,3.71858 5.087947,5.44946 -0.606664,0.60502 -1.213709,1.20965 -1.821136,1.8139 z m -5.966726,-6.49613 c -0.826796,-2.1997 -2.767896,-1.361 -4.675326,-1.49904 -1.016652,-0.83188 -2.016387,-1.69631 -2.997054,-2.59331 0.625375,-0.12679 1.248745,-0.25897 1.870053,-0.39649 1.755287,0.90505 0.848948,-1.53696 0.907206,-1.56279 0.844028,-0.50529 1.687303,-1.01187 2.529822,-1.51972 1.348763,2.06784 2.813504,4.06729 4.382101,5.98883 -0.67193,0.52795 -1.344197,1.05546 -2.016802,1.58252 z m -5.128469,-7.13872 c -0.549928,-2.27562 -2.569278,-1.68355 -4.441321,-2.05852 -0.903386,-0.9504 -1.785365,-1.93258 -2.643784,-2.94657 0.635107,-0.0457 1.268751,-0.0973 1.900872,-0.15472 1.623224,1.11828 1.034118,-1.41327 1.095027,-1.43143 0.899096,-0.39279 1.797556,-0.78701 2.695379,-1.18266 1.067917,2.2119 2.265675,4.3663 3.58115,6.45366 -0.728816,0.44058 -1.457924,0.88066 -2.187323,1.32024 z m -4.181463,-7.6962 c -0.252838,-2.32155 -2.322964,-1.99486 -4.131583,-2.61387 -0.771795,-1.06117 -1.517692,-2.15336 -2.235537,-3.2766 0.636375,0.0405 1.271826,0.0746 1.906295,0.10242 1.461156,1.32705 1.214321,-1.26271 1.277154,-1.27253 0.944277,-0.26857 1.888037,-0.53872 2.831276,-0.81044 0.75537,2.33113 1.654442,4.61563 2.685094,6.84398 -0.77732,0.3429 -1.554886,0.68525 -2.332699,1.02704 z m -3.125708,-8.16857 c 0.06476,-2.33778 -2.029241,-2.29464 -3.746113,-3.16508 -0.621877,-1.16419 -1.213364,-2.35864 -1.77231,-3.583381 0.629177,0.131763 1.257969,0.256716 1.88632,0.374911 1.269083,1.53135 1.389559,-1.085298 1.453586,-1.086094 0.979573,-0.13263 1.958745,-0.266978 2.937515,-0.403042 0.411121,2.425506 0.979806,4.815266 1.693933,7.159746 -0.817442,0.23493 -1.635086,0.46924 -2.452931,0.70294 z M 14.65927,97.826746 c 0.17714,-1.020838 -0.118152,-1.635168 -0.656791,-2.113806 -0.685086,-0.60819 -1.749822,-0.978619 -2.614261,-1.59341 -0.441958,-1.251694 -0.844823,-2.523509 -1.208578,-3.81329 0.600008,0.221894 1.20153,0.437297 1.804508,0.646152 1.024644,1.699344 1.531939,-0.868346 1.595226,-0.859777 0.985778,0.01227 1.97165,0.0228 2.957615,0.0316 0.04962,1.74839 0.179904,3.497816 0.394333,5.243921 0.07861,0.70625 0.170695,1.40988 0.275967,2.110662 -0.849183,0.116654 -1.698523,0.232635 -2.548019,0.347945 z m -0.70695,-8.782741 c 0.72983,-2.223325 -1.290955,-2.784944 -2.679274,-4.105394 -0.258525,-1.289316 -0.47876,-2.594261 -0.660688,-3.912682 0.560814,0.301773 1.123611,0.5976 1.688333,0.887423 0.773052,1.814782 1.629773,-0.640841 1.690933,-0.623572 0.969591,0.14954 1.93942,0.297468 2.909484,0.443779 -0.28116,2.434394 -0.414355,4.884616 -0.38994,7.33861 -0.852986,-0.0087 -1.705936,-0.01811 -2.558848,-0.02816 z m 0.553129,-8.736421 c 1.030251,-2.094755 -0.890561,-2.929004 -2.086335,-4.420708 -0.08301,-1.308652 -0.128533,-2.628444 -0.13655,-3.957219 0.516566,0.373129 1.035583,0.740857 1.556996,1.103126 0.526195,1.900211 1.700752,-0.418544 1.759116,-0.39331 0.94175,0.276811 1.883883,0.552128 2.826395,0.825948 -0.60683,2.382672 -1.076709,4.794959 -1.399991,7.224804 -0.83997,-0.126925 -1.679848,-0.254472 -2.519631,-0.382641 z m 1.732986,-8.574879 c 1.299759,-1.944935 -0.501127,-3.026661 -1.498197,-4.66022 0.08459,-1.309704 0.205861,-2.626057 0.363835,-3.946903 0.467265,0.435963 0.93745,0.867069 1.410498,1.293262 0.284073,1.955632 1.744878,-0.201453 1.799777,-0.168991 0.902256,0.394079 1.805039,0.786783 2.708346,1.178109 -0.907344,2.299421 -1.68875,4.642243 -2.334574,7.016411 -7.9e-5,-2.3e-5 -2.449606,-0.711645 -2.449685,-0.711668 z m 2.826661,-8.305178 c 1.538069,-1.774185 -0.122368,-3.077592 -0.914859,-4.823929 0.244269,-1.292471 0.524418,-2.587101 0.840467,-3.881733 0.412909,0.490273 0.829208,0.976236 1.248838,1.45783 0.04669,1.981045 1.76215,0.01043 1.812913,0.04939 0.85111,0.501345 1.702891,1.001433 2.555339,1.500263 -1.182701,2.18464 -2.250479,4.426468 -3.193689,6.713427 -5.5e-5,-2.3e-5 -2.348954,-1.01522 -2.349009,-1.015244 z m 3.834153,-7.927317 c 1.745078,-1.582841 0.24582,-3.081463 -0.336323,-4.911834 0.396032,-1.256955 0.827142,-2.511577 1.293348,-3.76171 0.3535,0.536061 0.710858,1.068357 1.072017,1.59683 -0.185965,1.976449 1.752568,0.217106 1.798525,0.26182 0.788311,0.598608 1.577436,1.196078 2.367373,1.792409 -1.432903,2.03833 -2.761897,4.147634 -3.977337,6.315856 -0.739463,-0.430638 -1.478665,-0.861762 -2.217603,-1.293371 z m 4.755462,-7.441296 c 1.920822,-1.371196 0.6034,-3.03798 0.237413,-4.923937 0.539878,-1.203153 1.11403,-2.399483 1.722476,-3.586834 0.289036,0.573327 0.5824,1.143434 0.880034,1.710263 -0.413881,1.941845 1.716133,0.418575 1.756614,0.468312 0.713859,0.685868 1.428675,1.370718 2.144448,2.054548 -1.657949,1.860489 -3.223003,3.805741 -4.685517,5.823697 -0.685474,-0.514911 -1.370631,-1.03026 -2.055468,-1.546049 z m 5.590588,-6.847115 c 2.065442,-1.139483 0.950232,-2.946912 0.806349,-4.860237 0.675806,-1.131068 1.385083,-2.250821 2.127851,-3.357104 0.219519,0.60207 0.443835,1.201465 0.67289,1.798127 -0.637063,1.877234 1.652843,0.614837 1.687179,0.668861 0.627753,0.763127 1.256609,1.525354 1.886563,2.28668 -1.857838,1.65112 -3.633795,3.400789 -5.318228,5.236949 -0.621242,-0.590699 -1.242111,-1.181791 -1.862604,-1.773276 z m 6.339532,-6.144774 c 2.179154,-0.887851 1.286099,-2.808108 1.370484,-4.720735 0.803816,-1.040697 1.640301,-2.065589 2.509473,-3.07252 0.144949,0.62229 0.295162,1.242451 0.450585,1.860424 -0.85551,1.782613 1.5627,0.805892 1.590219,0.863468 0.529996,0.830382 1.061237,1.659984 1.593722,2.488803 -2.032572,1.410222 -3.994278,2.932778 -5.875472,4.555613 -0.546768,-0.658004 -1.093105,-1.316355 -1.639011,-1.975053 z m 7.002294,-5.334275 c 2.262239,-0.616356 1.610718,-2.621511 1.929816,-4.505429 0.92391,-0.932042 1.879685,-1.843788 2.867345,-2.733083 0.06532,0.633988 0.136381,1.266392 0.213117,1.897153 -1.069221,1.657985 1.445703,0.99174 1.465737,1.052132 0.420584,0.887635 0.842558,1.774609 1.26592,2.66092 -2.18215,1.137794 -4.304448,2.401708 -6.357249,3.779688 -0.462049,-0.716825 -0.923612,-1.433952 -1.384686,-2.151381 z m 7.578871,-4.415614 c 2.31502,-0.324927 1.92377,-2.387195 2.48435,-4.214321 1.036085,-0.805102 2.103232,-1.585419 3.201462,-2.338793 -0.01935,0.637164 -0.03251,1.273289 -0.03951,1.908316 -1.278197,1.503347 1.301853,1.172379 1.313731,1.234853 0.29952,0.934886 0.600574,1.86923 0.903159,2.803029 -2.306572,0.833836 -4.564305,1.807579 -6.763556,2.909174 -0.367088,-0.767163 -0.733633,-1.534582 -1.099634,-2.302258 z m 8.069267,-3.388794 c 2.337805,-0.01333 2.224945,-2.105396 3.034081,-3.84741 1.140344,-0.659878 2.310946,-1.29048 3.511828,-1.889649 -0.109087,0.631817 -0.211502,1.26314 -0.307302,1.893909 -1.482438,1.318703 1.131149,1.347814 1.134201,1.411633 0.166803,0.972134 0.335284,1.943845 0.50544,2.915131 -2.405838,0.498348 -4.773852,1.150391 -7.094397,1.944072 -0.261884,-0.809018 -0.523168,-1.618247 -0.783851,-2.427686 z m 8.473479,-2.253814 c 2.330804,0.318867 2.514034,-1.776537 3.579013,-3.404696 0.131099,-0.05262 0.262529,-0.104859 0.39429,-0.156717 1.112093,-0.429127 2.240993,-0.827061 3.385162,-1.193777 -0.20083,0.609091 -0.395063,1.219552 -0.582642,1.831326 -1.666372,1.087775 0.925478,1.503946 0.919171,1.567669 0.0232,0.988216 0.04816,1.976484 0.07487,2.964804 -1.05255,0.06849 -2.104759,0.166529 -3.155675,0.294858 -1.402989,0.155813 -2.795873,0.364629 -4.176854,0.624197 -0.146436,-0.84239 -0.292215,-1.684945 -0.437339,-2.527664 z m 8.758962,-1.020302 c 2.252803,0.650986 2.743132,-1.392687 4.016403,-2.828828 1.281989,-0.303922 2.580744,-0.569583 3.894114,-0.796945 -0.282524,0.571552 -0.558991,1.144946 -0.829344,1.720127 -1.789351,0.836575 0.6981,1.608554 0.682949,1.670351 -0.115896,0.975361 -0.230157,1.95092 -0.342781,2.926674 -2.444611,-0.195422 -4.901235,-0.240874 -7.357749,-0.126832 -3e-6,-1.2e-4 -0.06359,-2.564427 -0.06359,-2.564547 z m 8.76461,0.244638 c 2.13087,0.957807 2.898968,-0.991882 4.350389,-2.238343 1.306171,-0.127305 2.624618,-0.217112 3.953188,-0.269381 -0.355752,0.528891 -0.705987,1.060099 -1.050649,1.593566 -1.882325,0.589842 0.475689,1.686302 0.452423,1.745498 -0.245112,0.950784 -0.488705,1.90191 -0.730778,2.853377 -2.401529,-0.525821 -4.828932,-0.912551 -7.270088,-1.150664 1.2e-5,-1.04e-4 0.295503,-2.533949 0.295515,-2.534053 z m 8.633227,1.44047 c 1.987403,1.23402 3.00842,-0.601691 4.608639,-1.651992 1.31203,0.04156 2.63184,0.119867 3.95729,0.234942 -0.42052,0.481111 -0.83605,0.965012 -1.24656,1.451645 -1.94529,0.347574 0.25824,1.73719 0.22759,1.793109 -0.36444,0.914484 -0.72748,1.829456 -1.08912,2.744912 -2.32674,-0.831376 -4.69322,-1.534539 -7.087315,-2.099963 2.1e-5,-8.4e-5 0.629455,-2.47257 0.629476,-2.472653 z m 8.393099,2.551187 c 1.8227,1.479303 3.07118,-0.221792 4.79116,-1.069775 1.29956,0.20269 2.60241,0.441353 3.9064,0.716027 -0.47681,0.42821 -0.94919,0.859683 -1.41707,1.294361 -1.97826,0.109774 0.0458,1.761219 0.008,1.813186 -0.47388,0.866462 -0.94648,1.733556 -1.41779,2.601279 -2.22026,-1.112088 -4.49412,-2.10684 -6.80945,-2.97473 3e-5,-6e-5 0.93827,-2.380288 0.9383,-2.380348 z m 8.04421,3.576792 c 1.63711,1.69352 3.08692,0.147949 4.89795,-0.491692 1.26876,0.356067 2.53632,0.747345 3.80053,1.17387 -0.52464,0.37019 -1.04538,0.744114 -1.56217,1.121716 -1.98122,-0.123558 -0.16175,1.75839 -0.20499,1.805729 -0.57344,0.806717 -1.14571,1.61421 -1.71682,2.422477 -2.08207,-1.367954 -4.2316,-2.629451 -6.43647,-3.774964 2e-5,-3.5e-5 1.22195,-2.257101 1.22197,-2.257136 z m 7.58658,4.517282 c 1.43093,1.876682 3.05533,0.507525 4.92901,0.08226 1.21963,0.501697 2.43358,1.037843 3.63969,1.608474 -0.56401,0.307047 -1.12465,0.618302 -1.68189,0.933709 -1.95417,-0.352425 -0.3643,1.728701 -0.41274,1.770737 -0.66311,0.735248 -1.32517,1.471417 -1.98618,2.208506 -1.91218,-1.598977 -3.90568,-3.102373 -5.96839,-4.500664 0.49305,-0.701311 0.98655,-1.402318 1.4805,-2.10302 z m 7.02019,5.372658 c 1.2044,2.028908 2.97618,0.856816 4.88434,0.652074 1.15218,0.639581 2.29419,1.312848 3.42387,2.019838 -0.5949,0.238785 -1.18699,0.482251 -1.77621,0.730341 -1.89712,-0.576824 -0.56188,1.672152 -0.6148,1.70821 -0.74289,0.652057 -1.48485,1.30518 -2.22588,1.959367 -1.71058,-1.805154 -3.51636,-3.525607 -5.40519,-5.151832 0.57088,-0.639693 1.14218,-1.279026 1.71387,-1.917998 z m 6.34507,6.142921 c 0.95768,2.1504 2.84927,1.195618 4.76392,1.217756 1.06642,0.769719 2.11816,1.57236 3.15307,2.407963 -0.61733,0.165401 -1.23239,0.335957 -1.84512,0.51161 -1.81006,-0.796756 -0.7545,1.588744 -0.81116,1.618148 -0.81279,0.557144 -1.62476,1.115498 -2.43592,1.675061 -1.4773,-1.986488 -3.06364,-3.899153 -4.74691,-5.728467 0.64035,-0.567774 1.28105,-1.135131 1.92212,-1.702071 z m 5.56118,6.82807 c 0.69087,2.241428 2.67456,1.523662 4.56779,1.779304 0.9623,0.89211 1.90545,1.81638 2.82728,2.772848 -0.6313,0.0869 -1.26086,0.179423 -1.88863,0.277518 -1.69301,-1.012222 -0.94216,1.478477 -1.00183,1.500552 -0.8728,0.450507 -1.74491,0.902369 -2.61631,1.355586 -1.2123,-2.142979 -2.54751,-4.22301 -3.99351,-6.23057 0.70142,-0.485553 1.40316,-0.970633 2.10521,-1.455238 z m 4.66855,7.428106 c 0.40392,2.302308 2.45206,1.840631 4.29591,2.336717 0.83988,1.006754 1.65611,2.044906 2.44653,3.114493 -0.6368,0.0033 -1.2724,0.01265 -1.90676,0.02806 -1.54594,-1.223221 -1.12484,1.341351 -1.1868,1.35542 -0.92292,0.332148 -1.84527,0.665797 -2.76704,1.000943 -0.9156,-2.274624 -1.96797,-4.497179 -3.145,-6.658139 0.75412,-0.39303 1.5085,-0.78553 2.26316,-1.177499 z m 3.66717,7.943027 c 0.0966,2.333359 2.182,2.146208 3.94831,2.889997 0.69912,1.113652 1.3701,2.257939 2.01079,3.432898 -0.63384,-0.08547 -1.26702,-0.164369 -1.89948,-0.23675 -1.36887,-1.429753 -1.30257,1.177365 -1.36609,1.182755 -0.96316,0.202065 -1.92586,0.405777 -2.8881,0.611131 -0.58721,-2.381425 -1.32504,-4.721659 -2.20139,-7.011177 0.79843,-0.290205 1.59708,-0.579823 2.39596,-0.868854 z m 2.55703,8.372834 c -0.2314,2.334824 1.86474,2.440151 3.52497,3.439144 0.38308,0.860298 0.74974,1.735627 1.09921,2.626 0.13969,0.365257 0.27604,0.732273 0.40905,1.100997 -0.61771,-0.17876 -1.2367,-0.350756 -1.85691,-0.515931 -0.11944,-0.169008 -0.2308,-0.29149 -0.33347,-0.375357 -0.31968,-0.260114 -0.55536,-0.151924 -0.72863,0.08578 -0.31133,0.426474 -0.43811,1.271949 -0.47495,1.269683 -0.9895,0.06012 -1.97903,0.122028 -2.96857,0.185733 -0.0359,-0.34551 -0.075,-0.690923 -0.11737,-1.036207 -0.23472,-2.10889 -0.5896,-4.194416 -1.05695,-6.250536 0.83436,-0.177078 1.6689,-0.353513 2.50362,-0.529305 z m 1.34237,8.70875 c -0.56818,2.279568 1.4954,2.695589 2.97753,3.919316 0.34925,1.272791 0.65981,2.563457 0.93166,3.869844 -0.58104,-0.2629 -1.16383,-0.519581 -1.74831,-0.769986 -0.89826,-1.760815 -1.58422,0.75394 -1.64652,0.740929 -0.97915,-0.08216 -1.95845,-0.162639 -2.93792,-0.241447 0.10889,-2.448431 0.0643,-4.905797 -0.14338,-7.360042 0.85566,-0.05356 1.7113,-0.106433 2.56694,-0.158614 z m 0.0691,8.776632 c -0.88388,2.161712 1.08936,2.862759 2.3822,4.27253 0.16977,1.301269 0.30166,2.615924 0.39564,3.941807 -0.53932,-0.338517 -1.08086,-0.671361 -1.62456,-0.998473 -0.64902,-1.861248 -1.66862,0.52904 -1.72846,0.507696 -0.95713,-0.214427 -1.91457,-0.427301 -2.87231,-0.638618 0.44714,-2.412474 0.75183,-4.847669 0.90441,-7.29353 0.84776,0.06888 1.69545,0.138414 2.54308,0.208588 z m -1.15384,8.669168 c -1.1689,2.022479 0.69449,2.983649 1.79166,4.549939 -0.002,1.31147 -0.0406,2.63182 -0.11662,3.95892 -0.49255,-0.40561 -0.98778,-0.80609 -1.48564,-1.20139 -0.40454,-1.93167 -1.72617,0.30934 -1.78289,0.2804 -0.92346,-0.33669 -1.84737,-0.67195 -2.77174,-1.00578 0.76024,-2.34499 1.38903,-4.72648 1.87673,-7.132428 9e-5,2e-5 2.48841,0.550319 2.4885,0.550339 z m -2.29061,8.453549 c -1.42283,1.86215 0.31042,3.05799 1.20592,4.75155 -0.16542,1.30337 -0.36712,2.61115 -0.60512,3.92117 -0.44072,-0.46418 -0.8846,-0.92378 -1.33157,-1.37874 -0.16478,-1.97209 -1.75687,0.0949 -1.80978,0.0591 -0.87814,-0.44897 -1.75688,-0.89662 -2.63621,-1.34294 1.04817,-2.24597 1.97591,-4.54224 2.77357,-6.87674 7e-5,2e-5 2.40312,0.86661 2.40319,0.86664 z m -3.34119,8.12976 c -1.64549,1.68107 -0.0631,3.08543 0.62498,4.87736 -0.32114,1.277 -0.67776,2.55391 -1.06988,3.82857 -0.38383,-0.51423 -0.77129,-1.02442 -1.16232,-1.53052 0.0702,-1.9825 -1.76072,-0.11442 -1.80916,-0.15635 -0.82117,-0.55123 -1.64307,-1.10126 -2.46572,-1.65009 1.31095,-2.11543 2.51248,-4.29493 3.59495,-6.52646 4e-5,2e-5 2.28711,1.15747 2.28715,1.15749 z m -4.30559,7.69782 c -1.83686,1.47954 -0.42595,3.06566 0.0488,4.92736 -0.46895,1.23234 -0.97257,2.4601 -1.51089,3.68113 -0.3219,-0.55576 -0.64789,-1.10803 -0.97792,-1.65674 0.30052,-1.9629 -1.7377,-0.3185 -1.78101,-0.36582 -0.75254,-0.64348 -1.50596,-1.2859 -2.26028,-1.92723 1.54858,-1.95335 2.99875,-3.98456 4.34087,-6.08159 0.71375,0.47383 1.42721,0.94813 2.14038,1.42289 z m -5.18381,7.15772 c -1.99701,1.25783 -0.77817,2.9984 -0.52249,4.90156 -0.60883,1.1694 -1.25154,2.32972 -1.92813,3.47882 -0.25491,-0.58876 -0.51438,-1.17458 -0.77836,-1.75739 0.52607,-1.91329 -1.68784,-0.51736 -1.72533,-0.56933 -0.67227,-0.72575 -1.34556,-1.45054 -2.01988,-2.17437 1.76104,-1.75974 3.4347,-3.61114 5.01132,-5.54214 0.65463,0.55387 1.30893,1.10815 1.96287,1.66285 z m -5.97584,6.50946 c -2.12615,1.01615 -1.11956,2.88348 -1.08902,4.79996 -0.7408,1.08816 -1.51468,2.16277 -2.32164,3.22166 -0.18286,-0.61324 -0.37076,-1.22409 -0.56363,-1.83247 0.74688,-1.83367 -1.61113,-0.71102 -1.64214,-0.76691 -0.58033,-0.798 -1.16183,-1.59517 -1.74451,-2.39149 1.94836,-1.53461 3.82033,-3.17466 5.60629,-4.9081 0.58529,0.62541 1.17017,1.25119 1.75465,1.87735 z m -6.68169,5.75303 c -2.22451,0.75459 -1.44984,2.72078 -1.65076,4.62256 -0.86485,0.98865 -1.76197,1.95926 -2.69138,2.90965 -0.10577,-0.6292 -0.21703,-1.25655 -0.33374,-1.88198 0.96295,-1.72405 -1.50756,-0.89947 -1.53142,-0.95855 -0.47675,-0.86026 -0.95481,-1.7198 -1.43419,-2.57861 2.11051,-1.27795 4.15566,-2.67512 6.1258,-4.17947 0.50569,0.68848 1.01092,1.37728 1.51569,2.0664 z m -7.30136,4.88846 c -2.2924,0.47314 -1.76872,2.5103 -2.20769,4.36934 -0.98099,0.87086 -1.99344,1.71918 -3.03738,2.54279 -0.0236,-0.63664 -0.0532,-1.27197 -0.0887,-1.90593 1.1743,-1.58441 -1.37714,-1.08271 -1.39318,-1.14423 -0.36151,-0.91251 -0.72447,-1.82442 -1.0889,-2.73573 2.2475,-0.98975 4.44067,-2.11252 6.56984,-3.35625 0.41585,0.74306 0.83118,1.48639 1.246,2.23001 z m -7.83485,3.91571 c -2.33015,0.17167 -2.07586,2.25221 -2.75982,4.04034 -1.08921,0.73477 -2.20907,1.44251 -3.35962,2.12107 0.0636,-0.63556 0.12074,-1.27035 0.17151,-1.90431 1.38092,-1.41477 -1.21985,-1.26075 -1.2274,-1.32399 -0.23462,-0.95476 -0.47084,-1.90903 -0.70867,-2.86283 2.35935,-0.67003 4.67537,-1.48686 6.93842,-2.43843 0.31576,0.78915 0.63096,1.57853 0.94558,2.36815 z m -8.282152,2.83481 c -2.338022,-0.15017 -2.371009,1.94681 -3.307154,3.63552 -1.189504,0.58041 -2.408866,1.1293 -3.658106,1.64451 0.15585,-0.62595 0.304793,-1.25168 0.446886,-1.87712 1.582786,-1.21513 -1.035725,-1.43358 -1.034112,-1.4978 -0.09607,-0.987 -0.193896,-1.97365 -0.293467,-2.95993 2.446039,-0.31877 4.85976,-0.79814 7.23152,-1.42604 0.205439,0.82677 0.41025,1.65372 0.614433,2.48086 z"
       id="path6777-3"
       inkscape:connector-curvature="0"
       inkscape:path-effect="#path-effect4711"
       inkscape:original-d="M 91.246055,156.82136 A 69.821709,69.687567 0 0 1 13.753402,95.742263 69.821709,69.687567 0 0 1 74.950062,18.398499 69.821709,69.687567 0 0 1 152.44271,79.477594 69.821709,69.687567 0 0 1 91.246055,156.82136 Z"
       transform="matrix(1.0812058,0,0,1.0812058,-6.3568265,-10.133386)" />
  </g>
  <g
     inkscape:groupmode="layer"
     id="layer2"
     inkscape:label="hair"
     style="display:inline"
     transform="translate(-45.251011,-66.653948)">
    <path
       id="path3927"
       style="display:inline;fill:#000000;fill-opacity:1;stroke:none;stroke-width:0.26458332px;stroke-linecap:butt;stroke-linejoin:miter;stroke-opacity:1"
       d="m 156.8204,179.33459 c 0,0 0.13363,2.80633 2.07133,5.07812 1.93771,2.27179 -25.92514,7.34991 -25.92514,7.34991 m 0,0 c 0,0 -15.7689,-6.28083 -16.83798,-9.02035 -1.06908,-2.73951 1.06908,-8.61944 1.13589,-8.35217 0,0 -1.9377,2.40543 -2.80632,8.95353 0,0 -2.33861,-4.34313 -1.00227,-14.90027 0,0 -1.5368,3.27405 -1.00226,14.96709 0,0 -3.60813,-3.4745 -5.07812,-22.04974 0,0 -0.4009,3.54133 -1.00225,8.55263 0,0 -10.089433,-23.11881 -1.26954,-45.30219 0,0 1.26953,-29.332826 26.05878,-23.18563 0,0 31.27054,-9.421245 36.68274,38.21955 0,0 4.54359,8.68626 4.94449,17.7066 0.4009,9.02035 -1.06908,14.36574 1.9377,19.57749 0,0 -4.47676,-4.47676 -5.81311,-9.48806 0,0 -0.80181,3.67495 0.86863,7.61718 0,0 -0.40091,0.33408 -5.94675,-9.2208 0,0 -0.4009,14.43255 3.0736,21.38156 0,0 -8.21854,-4.54358 -10.08942,-7.88445"
       inkscape:connector-curvature="0" />
  </g>
  <g
     inkscape:groupmode="layer"
     id="layer3"
     inkscape:label="skin"
     style="display:inline"
     transform="translate(-45.251011,-66.653948)">
    <path
       id="path3934"
       style="fill:#b1964e;fill-opacity:1;stroke:none;stroke-width:0.26458332px;stroke-linecap:butt;stroke-linejoin:miter;stroke-opacity:1"
       d="m 113.12183,139.24416 c 0,-1.8e-4 -5.38252,-18.5978 13.36347,-28.66465 -0.0822,2.21965 18.91335,0.23744 25.7239,19.04259 1.56418,4.319 3.3187,5.90694 3.54212,10.15661 0,0 3.27405,-6.01358 2.80633,4.07585 0,0 -0.20046,4.74404 -4.87767,5.87993 0,0 -2.20498,8.15172 -10.62397,14.29892 0,0 0.26727,18.97614 14.63301,20.51294 3.3796,0.49558 15.44763,4.98462 24.5888,23.31926 -2.02519,4.08794 -49.61383,38.17979 -96.417489,-1.00226 l 16.637529,-18.67544 c 4.98463,-3.7988 16.63132,-4.92929 19.07541,-9.65566 1.72844,-3.34244 2.77163,-8.15787 3.44205,-15.23381 0,0 -6.94901,-6.08038 -9.35443,-13.8312 0,0 -4.6104,0.13364 -5.27858,-6.61492 0,0 -0.20045,-6.81537 2.73952,-3.60814"
       inkscape:connector-curvature="0"
       sodipodi:nodetypes="cccccccccccccccc" />
  </g>
  <g
     inkscape:groupmode="layer"
     id="layer12"
     inkscape:label="nose_shadow"
     style="display:inline"
     transform="translate(-45.251011,-66.653948)">
    <path
       style="display:inline;fill:#000000;fill-opacity:1;stroke:none;stroke-width:0.26458332px;stroke-linecap:butt;stroke-linejoin:miter;stroke-opacity:1"
       d="m 134.21607,149.28836 c 0,0 1.35903,-1.74431 1.95808,-0.99944 0,0 0.48093,0.74238 -0.27777,0.86856 z"
       id="path4002"
       inkscape:connector-curvature="0" />
    <path
       style="display:inline;fill:#000000;fill-opacity:1;stroke:none;stroke-width:0.26458332px;stroke-linecap:butt;stroke-linejoin:miter;stroke-opacity:1"
       d="m 131.14177,149.1343 c 0,0 -0.90679,-0.74295 0.0535,-1.05313 0.28278,-0.0957 0.95765,0.4608 1.40364,1.19005 z"
       id="path4004"
       inkscape:connector-curvature="0"
       sodipodi:nodetypes="cccc" />
  </g>
  <g
     inkscape:groupmode="layer"
     id="layer9"
     inkscape:label="mouth"
     style="display:inline"
     transform="translate(-45.251011,-66.653948)">
    <path
       style="fill:#000000;fill-opacity:1;stroke:none;stroke-width:0.26458332px;stroke-linecap:butt;stroke-linejoin:miter;stroke-opacity:1"
       d="m 127.82165,156.54986 c -0.003,0.002 2.7617,-3.03855 6.11379,-1.50339 0,0 3.30746,-1.23612 6.18061,1.36976 0,0 -5.61266,5.91333 -12.2944,0.13363 z"
       id="path3991"
       inkscape:connector-curvature="0"
       sodipodi:nodetypes="cccc" />
  </g>
  <g
     inkscape:groupmode="layer"
     id="layer4"
     inkscape:label="shirt"
     style="display:inline"
     transform="translate(-45.251011,-66.653948)">
    <path
       style="fill:#000000;fill-opacity:1;fill-rule:nonzero;stroke:none;stroke-width:0.26458332px;stroke-linecap:butt;stroke-linejoin:miter;stroke-opacity:1"
       d="m 85.71147,206.83902 c 0,0 4.446537,-8.23554 9.904201,-13.67323 5.645129,-5.62447 15.721209,-9.61489 16.052379,-8.88672 -0.58119,-0.13517 19.46062,16.95918 46.17082,0.1451 0,0 15.95929,2.86546 25.78145,23.24476 -6.68113,9.68922 -53.35072,42.33708 -97.90885,-0.82991 z"
       id="path3937"
       inkscape:connector-curvature="0"
       sodipodi:nodetypes="cscccc" />
  </g>
  <g
     inkscape:groupmode="layer"
     id="layer8"
     inkscape:label="hard_skin_shadow"
     style="display:inline"
     transform="translate(-45.251011,-66.653948)">
    <path
       style="opacity:0.98000004;fill:#000000;fill-opacity:1;stroke:none;stroke-width:0.26458332px;stroke-linecap:butt;stroke-linejoin:miter;stroke-opacity:1"
       d="m 143.05433,164.06108 c 0,0 -5.3103,4.68296 -9.38616,3.94797 0,0 -4.57279,-0.82248 -8.61944,-4.71063 0,0 3.70668,9.35731 18.60696,5.61553 -0.32598,-1.93329 -0.42842,-4.76699 -0.60136,-4.85287 z"
       id="path3979"
       inkscape:connector-curvature="0"
       sodipodi:nodetypes="ccccc" />
  </g>
  <g
     inkscape:groupmode="layer"
     id="layer6"
     inkscape:label="eyebrows"
     style="display:inline"
     transform="translate(-45.251011,-66.653948)">
    <path
       id="path3971"
       style="fill:#000000;fill-opacity:1;stroke:none;stroke-width:0.25847954px;stroke-linecap:butt;stroke-linejoin:miter;stroke-opacity:1"
       d="m 152.17797,131.30535 c -0.0375,-0.0632 -6.61398,-4.65413 -12.57811,0.56869 m 0,0 c 0,0 -2.03797,0.53523 -0.82793,-1.70608 0.0645,-0.37284 7.00887,-5.98009 13.40604,1.13739 m -23.50037,-0.23417 c 0,0 0.2866,2.00715 -3.18433,-0.36798 0,0 -5.2223,-3.44561 -11.27253,1.23774 m 0,0 c 1.98525,-3.95459 11.59326,-6.80542 14.45686,-0.86976"
       inkscape:connector-curvature="0" />
  </g>
  <g
     inkscape:groupmode="layer"
     id="layer13"
     inkscape:label="frame"
     style="display:inline"
     transform="translate(-45.251011,-66.653948)">
    <path
       id="path4909"
       style="fill:#000000;fill-opacity:1;stroke:none;stroke-width:0.2;stroke-linecap:butt;stroke-linejoin:miter;stroke-miterlimit:4;stroke-dasharray:none;stroke-opacity:1"
       d="m 153.11757,134.36662 1.61053,-1.11165 0.59749,-0.48235 0.1936,2.88021 -0.92722,0.85927 -1.38762,1.44502 c -0.44532,3.92322 -2.36092,8.14602 -8.04649,8.96351 -3.36093,0.68245 -10.83923,-2.47969 -10.05447,-9.78631 0,0 -1.04747,-1.73432 -3.37125,0.13124 m 0,0 c 0.48844,1.13995 -0.79088,10.61692 -9.45041,9.97577 -2.72009,-0.23637 -6.66026,-1.10225 -8.60719,-8.66766 l -1.16962,-1.10478 -0.1299,-3.06962 -0.0462,-1.01924 0.0404,0.0183 1.19071,1.19626 c 0,0 10.84906,-5.70702 17.32847,0.99528 0,0 2.38095,-2.36833 5.05873,-0.10297 0,0 7.04173,-6.08645 17.1705,-1.12031"
       inkscape:connector-curvature="0"
       sodipodi:nodetypes="cccccccccccccccccccc" />
  </g>
</svg>
