<?xml version="1.0" encoding="UTF-8" standalone="no"?>
<!-- Created with Inkscape (http://www.inkscape.org/) -->

<svg
   xmlns:dc="http://purl.org/dc/elements/1.1/"
   xmlns:cc="http://creativecommons.org/ns#"
   xmlns:rdf="http://www.w3.org/1999/02/22-rdf-syntax-ns#"
   xmlns:svg="http://www.w3.org/2000/svg"
   xmlns="http://www.w3.org/2000/svg"
   xmlns:xlink="http://www.w3.org/1999/xlink"
   xmlns:sodipodi="http://sodipodi.sourceforge.net/DTD/sodipodi-0.dtd"
   xmlns:inkscape="http://www.inkscape.org/namespaces/inkscape"
   width="162.59239mm"
   height="162.58867mm"
   viewBox="0 0 162.5924 162.58866"
   version="1.1"
   id="svg8"
   inkscape:version="0.92.5 (2060ec1f9f, 2020-04-08)"
   sodipodi:docname="ada_logo_orbitron.svg"
   inkscape:export-filename="/home/henley/awesome_ada_2.png"
   inkscape:export-xdpi="104.12469"
   inkscape:export-ydpi="104.12469"
   style="enable-background:new">
  <defs
     id="defs2">
    <inkscape:path-effect
       effect="skeletal"
       id="path-effect4711"
       is_visible="true"
       pattern="m 123.5613,90.268063 c 2.24703,0.755669 2.8149,-1.364419 3.99006,-2.812357 l 3.697,-1.009385 -0.67581,1.797398 c -1.69273,0.969956 0.81127,1.568194 0.80117,1.631727 l -0.10783,2.977731 -7.75291,-0.005 z"
       copytype="repeated_stretched"
       prop_scale="1"
       scale_y_rel="false"
       spacing="1"
       normal_offset="0"
       tang_offset="0"
       prop_units="false"
       vertical_pattern="false"
       fuse_tolerance="0" />
    <inkscape:path-effect
       effect="skeletal"
       id="path-effect4680"
       is_visible="true"
       pattern="m -4.3827964,95.407795 c 1.284417,3.059843 2.9594021,2.981795 4.32059514,0.154248 l 1.41670216,-2e-6 -0.02681,4.020286 -7.1279,-7e-6 2e-6,-4.198148"
       copytype="repeated_stretched"
       prop_scale="1"
       scale_y_rel="true"
       spacing="1.6"
       normal_offset="0"
       tang_offset="0"
       prop_units="false"
       vertical_pattern="false"
       fuse_tolerance="0" />
    <inkscape:path-effect
       effect="skeletal"
       id="path-effect946"
       is_visible="true"
       pattern="m -4.3827964,95.407795 c 1.284417,3.059843 2.9594021,2.981795 4.32059514,0.154248 l 1.41670216,-2e-6 -0.02681,4.020286 -7.1279,-7e-6 2e-6,-4.198148"
       copytype="repeated_stretched"
       prop_scale="1"
       scale_y_rel="false"
       spacing="0"
       normal_offset="0"
       tang_offset="0"
       prop_units="false"
       vertical_pattern="false"
       fuse_tolerance="0" />
    <filter
       style="color-interpolation-filters:sRGB"
       inkscape:label="Greyscale"
       id="filter923">
      <feColorMatrix
         values="0.21 0.72 0.072 0 0 0.21 0.72 0.072 0 0 0.21 0.72 0.072 0 0 0 0 0 1 0 "
         id="feColorMatrix921" />
    </filter>
    <inkscape:path-effect
       effect="skeletal"
       id="path-effect4711-3"
       is_visible="true"
       pattern="m 123.5613,90.268063 c 2.24703,0.755669 2.8149,-1.364419 3.99006,-2.812357 l 3.697,-1.009385 -0.67581,1.797398 c -1.69273,0.969956 0.81127,1.568194 0.80117,1.631727 l -0.10783,2.977731 -7.75291,-0.005 z"
       copytype="repeated_stretched"
       prop_scale="1"
       scale_y_rel="false"
       spacing="1"
       normal_offset="0"
       tang_offset="0"
       prop_units="false"
       vertical_pattern="false"
       fuse_tolerance="0" />
  </defs>
  <sodipodi:namedview
     id="base"
     pagecolor="#ffffff"
     bordercolor="#666666"
     borderopacity="1.0"
     inkscape:pageopacity="0.0"
     inkscape:pageshadow="2"
     inkscape:zoom="0.9899495"
     inkscape:cx="315.33537"
     inkscape:cy="213.28117"
     inkscape:document-units="mm"
     inkscape:current-layer="layer21"
     showgrid="false"
     inkscape:window-width="1848"
     inkscape:window-height="1016"
     inkscape:window-x="72"
     inkscape:window-y="27"
     inkscape:window-maximized="1"
     inkscape:snap-nodes="false"
     fit-margin-top="10"
     fit-margin-left="10"
     fit-margin-right="10"
     fit-margin-bottom="10"
     showguides="true"
     inkscape:guide-bbox="true" />
  <metadata
     id="metadata5">
    <rdf:RDF>
      <cc:Work
         rdf:about="">
        <dc:format>image/svg+xml</dc:format>
        <dc:type
           rdf:resource="http://purl.org/dc/dcmitype/StillImage" />
        <dc:title></dc:title>
      </cc:Work>
    </rdf:RDF>
  </metadata>
  <g
     inkscape:groupmode="layer"
     id="layer21"
     inkscape:label="logo"
     transform="translate(-3.2257045,-2.2908301)"
     style="display:inline;opacity:1">
    <path
       style="color:#000000;font-style:normal;font-variant:normal;font-weight:normal;font-stretch:normal;font-size:medium;line-height:normal;font-family:sans-serif;font-variant-ligatures:normal;font-variant-position:normal;font-variant-caps:normal;font-variant-numeric:normal;font-variant-alternates:normal;font-feature-settings:normal;text-indent:0;text-align:start;text-decoration:none;text-decoration-line:none;text-decoration-style:solid;text-decoration-color:#000000;letter-spacing:normal;word-spacing:normal;text-transform:none;writing-mode:lr-tb;direction:ltr;text-orientation:mixed;dominant-baseline:auto;baseline-shift:baseline;text-anchor:start;white-space:normal;shape-padding:0;clip-rule:nonzero;display:inline;overflow:visible;visibility:visible;opacity:1;isolation:auto;mix-blend-mode:normal;color-interpolation:sRGB;color-interpolation-filters:linearRGB;solid-color:#000000;solid-opacity:1;vector-effect:none;fill:#cdbd8e;fill-opacity:1;fill-rule:nonzero;stroke:#00000a;stroke-width:3;stroke-linecap:butt;stroke-linejoin:miter;stroke-miterlimit:4;stroke-dasharray:none;stroke-dashoffset:0;stroke-opacity:1;color-rendering:auto;image-rendering:auto;shape-rendering:auto;text-rendering:auto;enable-background:new"
       d="m 113.29888,119.5621 c -39.090193,-6.49522 -44.977301,-1.85098 -76.266264,15.76669 -11.623167,-11.2008 -19.94039,-27.5538 -21.82409,-43.585248 -4.497669,-38.278085 22.900095,-72.9715 61.178177,-77.469173 2.392381,-0.281105 4.770885,-0.437856 7.128764,-0.474906 35.368173,-0.55579 66.123843,25.76686 70.340413,61.652567 1.92242,16.36115 -2.23893,34.09952 -11.31946,47.84459"
       id="path6777"
       inkscape:connector-curvature="0"
       sodipodi:nodetypes="ccsscsc" />
    <path
       id="path3927"
       style="display:inline;fill:#000000;fill-opacity:1;stroke:none;stroke-width:0.26458332px;stroke-linecap:butt;stroke-linejoin:miter;stroke-opacity:1;enable-background:new"
       d="m 104.91688,107.30722 c 0,0 0.13363,2.80632 2.07133,5.07811 1.93771,2.2718 -25.925139,7.34991 -25.925139,7.34991 m 0,0 c 0,0 -15.7689,-6.28083 -16.83798,-9.02034 -1.06908,-2.73952 1.06908,-8.61944 1.13589,-8.35218 0,0 -1.9377,2.40543 -2.80632,8.95353 0,0 -2.33861,-4.34312 -1.00227,-14.900267 0,0 -1.5368,3.274052 -1.00226,14.967087 0,0 -3.60813,-3.4745 -5.07812,-22.049737 0,0 -0.4009,3.541332 -1.00225,8.55263 0,0 -10.08944,-23.11881 -1.26954,-45.302188 0,0 1.26953,-29.332828 26.05878,-23.185632 0,0 31.270539,-9.421245 36.682739,38.21955 0,0 4.54359,8.68626 4.94449,17.7066 0.4009,9.020352 -1.06908,14.365742 1.9377,19.577487 0,0 -4.47676,-4.47676 -5.81311,-9.488057 0,0 -0.80181,3.674951 0.86863,7.617187 0,0 -0.40091,0.33407 -5.94675,-9.220806 0,0 -0.4009,14.432546 3.0736,21.381556 0,0 -8.21854,-4.54357 -10.08942,-7.88444"
       inkscape:connector-curvature="0" />
    <path
       id="path3934"
       style="display:inline;fill:#b1964e;fill-opacity:1;stroke:none;stroke-width:0.26458332px;stroke-linecap:butt;stroke-linejoin:miter;stroke-opacity:1;enable-background:new"
       d="m 61.218311,67.216783 c 0,-1.8e-4 -5.38252,-18.5978 13.36347,-28.664651 -0.0822,2.21965 18.91335,0.237442 25.723899,19.042592 1.56418,4.319 3.3187,5.906939 3.54212,10.15661 0,0 3.27405,-6.013579 2.80633,4.075848 0,0 -0.20046,4.74404 -4.87767,5.879931 0,0 -2.204979,8.15172 -10.623969,14.298922 0,0 0.26727,18.976135 14.633009,20.512945 3.3796,0.49558 2.49523,2.53728 11.82539,7.64275 -7.82271,-3.544 -40.069659,-5.53394 -73.112668,9.15724 l 6.096119,-13.15844 c 4.98463,-3.79879 16.63132,-4.92928 19.07541,-9.65566 1.72844,-3.34243 2.77163,-8.157865 3.44205,-15.233805 0,0 -6.94901,-6.080382 -9.35443,-13.831202 0,0 -4.6104,0.133641 -5.27858,-6.61492 0,0 -0.20045,-6.81537 2.73952,-3.608138"
       inkscape:connector-curvature="0"
       sodipodi:nodetypes="cccccccccccccccc" />
    <path
       style="display:inline;fill:#000000;fill-opacity:1;stroke:none;stroke-width:0.26458332px;stroke-linecap:butt;stroke-linejoin:miter;stroke-opacity:1;enable-background:new"
       d="m 82.312551,77.260983 c 0,0 1.35903,-1.74431 1.95808,-0.99944 0,0 0.48093,0.742382 -0.27777,0.868561 z"
       id="path4002"
       inkscape:connector-curvature="0" />
    <path
       style="display:inline;fill:#000000;fill-opacity:1;stroke:none;stroke-width:0.26458332px;stroke-linecap:butt;stroke-linejoin:miter;stroke-opacity:1;enable-background:new"
       d="m 79.238251,77.106924 c 0,0 -0.90679,-0.74295 0.0535,-1.053131 0.28277,-0.0957 0.95764,0.460801 1.40363,1.19005 z"
       id="path4004"
       inkscape:connector-curvature="0"
       sodipodi:nodetypes="cccc" />
    <path
       style="display:inline;fill:#000000;fill-opacity:1;stroke:none;stroke-width:0.26458332px;stroke-linecap:butt;stroke-linejoin:miter;stroke-opacity:1;enable-background:new"
       d="m 75.918131,84.522483 c -0.003,0.0021 2.7617,-3.038549 6.11379,-1.503389 0,0 3.30746,-1.23612 6.18061,1.369759 0,0 -5.61266,5.913332 -12.2944,0.13363 z"
       id="path3991"
       inkscape:connector-curvature="0"
       sodipodi:nodetypes="cccc" />
    <path
       style="display:inline;fill:#000000;fill-opacity:1;fill-rule:nonzero;stroke:none;stroke-width:0.26458332px;stroke-linecap:butt;stroke-linejoin:miter;stroke-opacity:1;enable-background:new"
       d="m 36.600849,136.5299 c 0,0 2.321806,-10.08743 7.779476,-15.52512 5.64513,-5.62447 15.72121,-9.61488 16.05238,-8.88671 -0.58119,-0.13517 20.40556,14.12436 46.170815,0.1451 0,0 11.28044,2.45504 14.29903,8.47124 -61.301143,4.71649 -88.421967,18.43958 -84.301701,15.79549 z"
       id="path3937"
       inkscape:connector-curvature="0"
       sodipodi:nodetypes="cscccc" />
    <path
       style="display:inline;opacity:0.98000004;fill:#000000;fill-opacity:1;stroke:none;stroke-width:0.26458332px;stroke-linecap:butt;stroke-linejoin:miter;stroke-opacity:1;enable-background:new"
       d="m 91.150811,92.033703 c 0,0 -5.3103,4.68296 -9.38616,3.947972 0,0 -4.57279,-0.822481 -8.61944,-4.710631 0,0 3.70668,9.357306 18.60696,5.61553 -0.32598,-1.93329 -0.42842,-4.76699 -0.60136,-4.852871 z"
       id="path3979"
       inkscape:connector-curvature="0"
       sodipodi:nodetypes="ccccc" />
    <path
       id="path3971"
       style="display:inline;fill:#000000;fill-opacity:1;stroke:none;stroke-width:0.25847954px;stroke-linecap:butt;stroke-linejoin:miter;stroke-opacity:1;enable-background:new"
       d="m 100.27445,59.277974 c -0.0375,-0.0632 -6.613979,-4.65413 -12.578109,0.56869 m 0,0 c 0,0 -2.03797,0.535231 -0.82793,-1.706081 0.0645,-0.37284 7.00887,-5.980089 13.406039,1.137391 m -23.500369,-0.23417 c 0,0 0.2866,2.007151 -3.18433,-0.36798 0,0 -5.2223,-3.44561 -11.27253,1.23774 m 0,0 c 1.98525,-3.95459 11.59326,-6.80542 14.45686,-0.86976"
       inkscape:connector-curvature="0" />
    <path
       id="path4909"
       style="display:inline;fill:#000000;fill-opacity:1;stroke:none;stroke-width:0.2;stroke-linecap:butt;stroke-linejoin:miter;stroke-miterlimit:4;stroke-dasharray:none;stroke-opacity:1;enable-background:new"
       d="m 101.21405,62.339243 1.61053,-1.11165 0.59749,-0.482349 0.1936,2.88021 -0.92722,0.859268 -1.38762,1.445022 c -0.44532,3.923221 -2.360919,8.146021 -8.046489,8.963509 -3.36093,0.682451 -10.83923,-2.479691 -10.05447,-9.78631 0,0 -1.04747,-1.73432 -3.37125,0.131241 m 0,0 c 0.48844,1.13995 -0.79088,10.61692 -9.45041,9.975771 -2.72009,-0.236371 -6.66026,-1.102252 -8.60719,-8.66766 l -1.16962,-1.104781 -0.1299,-3.069619 -0.0462,-1.019241 0.0404,0.01831 1.19071,1.19626 c 0,0 10.84906,-5.70702 17.32847,0.995281 0,0 2.38095,-2.368331 5.05873,-0.102971 0,0 7.04173,-6.086448 17.170499,-1.120309"
       inkscape:connector-curvature="0"
       sodipodi:nodetypes="cccccccccccccccccccc" />
    <path
       id="path873"
       style="display:inline;opacity:1;fill:#000000;fill-opacity:1;stroke:#000000;stroke-width:0.29553288px;stroke-linecap:butt;stroke-linejoin:miter;stroke-opacity:1;enable-background:new"
       d="M 23.725297,143.44475 C 60.28383,123.23198 103.73888,113.42842 153.82589,125.06246 105.24478,118.7615 61.360873,123.65652 23.725297,143.44475 Z"
       inkscape:connector-curvature="0"
       sodipodi:nodetypes="ccc" />
    <flowRoot
       xml:space="preserve"
       id="flowRoot2402"
       style="font-style:normal;font-weight:normal;font-size:40px;line-height:1.25;font-family:sans-serif;letter-spacing:0px;word-spacing:0px;fill:#000000;fill-opacity:1;stroke:none"><flowRegion
         id="flowRegion2404"><rect
           id="rect2406"
           width="192.93913"
           height="121.21831"
           x="319.20819"
           y="495.39795" /></flowRegion><flowPara
         id="flowPara2408" /></flowRoot>    <g
       aria-label="Ada"
       transform="matrix(0.26458333,0,0,0.26458333,-8.3048731,4.6962558)"
       style="font-style:normal;font-variant:normal;font-weight:bold;font-stretch:normal;font-size:96px;line-height:1.25;font-family:Orbitron;-inkscape-font-specification:'Orbitron Bold';letter-spacing:0px;word-spacing:0px;fill:#000000;fill-opacity:1;stroke:none"
       id="flowRoot844">
      <path
         d="m 326.79652,567.62174 v -55.776 q 0,-3.648 1.824,-6.624 1.824,-3.072 4.8,-4.896 3.072,-1.824 6.72,-1.824 h 42.336 q 3.648,0 6.72,1.824 3.072,1.824 4.896,4.896 1.824,2.976 1.824,6.624 v 55.776 h -12.768 v -23.232 h -43.68 v 23.232 z m 12.672,-35.904 h 43.68 v -19.296 q 0,-0.48 -0.384,-0.768 -0.384,-0.384 -0.864,-0.384 h -41.28 q -0.48,0 -0.864,0.384 -0.288,0.288 -0.288,0.768 z"
         id="path919"
         inkscape:connector-curvature="0" />
      <path
         d="m 416.94038,567.62174 q -3.74401,0 -6.72001,-1.824 -2.976,-1.824 -4.8,-4.8 -1.72799,-2.976 -1.72799,-6.624 v -29.184 q 0,-3.648 1.72799,-6.624 1.824,-2.976 4.8,-4.8 2.976,-1.824 6.72001,-1.824 h 30.81599 v -18.24 h 12.57601 v 73.92 z m 0.57599,-12.576 h 29.088 q 0.48001,0 0.76801,-0.288 0.38399,-0.384 0.38399,-0.864 v -28.224 q 0,-0.48 -0.38399,-0.768 -0.288,-0.384 -0.76801,-0.384 h -29.088 q -0.47999,0 -0.864,0.384 -0.288,0.288 -0.288,0.768 v 28.224 q 0,0.48 0.288,0.864 0.38401,0.288 0.864,0.288 z"
         id="path921"
         inkscape:connector-curvature="0" />
      <path
         d="m 483.75636,567.62174 q -3.648,0 -6.72,-1.824 -2.976,-1.824 -4.8,-4.8 -1.728,-2.976 -1.728,-6.624 v -20.928 h 43.968 v -7.776 q 0,-0.48 -0.384,-0.768 -0.288,-0.384 -0.768,-0.384 h -42.816 v -12.576 h 43.296 q 3.648,0 6.624,1.824 3.072,1.824 4.8,4.8 1.824,2.976 1.824,6.624 v 42.432 z m 0.48,-12.576 h 30.24 v -10.272 h -31.392 v 9.12 q 0,0.48 0.288,0.864 0.384,0.288 0.864,0.288 z"
         id="path923"
         inkscape:connector-curvature="0" />
    </g>
  </g>
</svg>
