
    <svg id="svg_root" viewBox="0 0 300 300" xmlns="http://www.w3.org/2000/svg">
      <rect id="svg_frame" width="300" height="300" style="fill:none;stroke-width:10" stroke="none"></rect>
      <!-- <circle id="svg_circle_frame" cx="150" cy="150" r="148" style="fill:none;stroke-width:5" stroke="black"/> -->
      <g transform="translate(8, 40)">
        <g transform="matrix(1.3333333,0,0,-1.3333333,0,199.99999)" id="g10">
          <g transform="scale(0.095)">
            <path id="svg_logo" fill="#ffffff" style="fill-opacity:1;fill-rule:nonzero;stroke:none;stroke-width:0.79978472" d="m 1735.94,608.49687 c 0,38.89593 40.941,53.21687 107.491,60.38695 55.2652,6.13914 99.2853,15.35507 127.9496,33.7789 v -49.13077 c 0,-58.64022 -49.3706,-87.16455 -115.2809,-93.67799 -26.8888,2.49933 -55.0253,4.84269 -84.2414,6.98213 -22.7299,8.66966 -35.9183,23.40009 -35.9183,41.66078 z M 461.48704,591.09515 h 283.55808 l 23.26574,-68.80948 C 646.26531,500.07325 524.76681,470.81552 407.55436,433.93505 Z M 602.76101,1008.7364 702.04709,716.99567 H 503.45974 Z M 1233.3232,862.35414 c 74.732,0 135.1237,-67.56661 135.1237,-151.49682 0,-59.35602 -31.7914,-110.48307 -77.6991,-134.22627 -34.5746,-1.15649 -69.5972,-2.74967 -104.9637,-4.81151 -51.1783,20.68164 -87.5764,73.93291 -87.5764,139.03778 0,85.98246 60.3917,151.49682 135.1155,151.49682 z m 864.1035,-333.2423 c -0.072,1.93708 -0.1439,3.85896 -0.1439,5.67047 v 274.34536 c 0,41.96311 -16.3717,180.15792 -230.3141,180.15792 -138.1948,0 -234.4248,-74.7271 -247.7333,-175.0441 h 135.1316 c 12.2848,45.04468 67.5659,66.5389 115.6809,66.5389 60.3838,0 96.2061,-22.52513 96.2061,-50.15851 0,-42.98843 -62.4392,-53.23607 -150.4715,-61.42107 -116.6886,-10.23163 -215.9899,-40.94257 -215.9899,-159.68821 0,-11.79363 1.1837,-22.90024 3.2552,-33.4598 -32.3513,1.17169 -65.5504,2.03066 -99.4852,2.53052 V 1210.3941 H 1368.4469 V 925.81466 c -40.941,38.90154 -94.1826,61.42347 -155.5981,61.42347 -137.1711,0 -250.79646,-118.73604 -250.79646,-275.36588 0,-58.3403 16.0277,-111.482 43.24426,-155.14225 -33.88676,-3.7182 -67.91766,-7.96666 -102.02046,-12.74697 L 688.73788,1159.2078 H 517.79029 L 245.16046,376.71605 C 165.53549,345.41168 88.946415,310.13957 16.762722,270.71018 366.24067,423.18755 1228.0367,629.60079 2203.4541,503.15082 c -4.6546,5.16981 -42.4765,15.02716 -106.0274,25.96102"></path>
          </g>
        </g>
      </g>
      <g id="svg_subtext" fill="#ffffff" transform="translate(44, 241) scale(1) "><path d="M19-18L19-23L2-23L2-18ZM35-53L26-53L26-12C26-10 26-8 26-6C26-1 29 1 34 1C36 1 38 0 40 0L40-7C37-6 36-7 36-9C35-10 35-11 35-13ZM69 0L79 0C78-4 78-7 78-10L78-22C78-24 78-26 78-28C77-35 73-39 63-39C53-39 47-34 46-26L56-26C56-30 58-32 62-32C66-32 68-30 68-28C68-26 68-25 68-24L68-23L66-23C52-23 45-19 45-10C45-3 50 1 57 1C61 1 64 0 67-2L68-6ZM61-6C57-6 55-8 55-11C55-16 60-18 68-17L68-14C68-9 65-6 61-6ZM123-29C122-35 118-39 110-39C106-39 103-39 100-37L97-32L97-38L87-38L87 0L97 0L97-17C97-28 101-32 106-32C111-32 113-30 113-26C113-24 113-22 113-20L113 0L123 0L123-22C123-25 123-27 123-29ZM169-38L159-38L159-33L157-37C155-39 151-39 148-39C138-39 130-33 130-19C130-7 136 0 147 0C151 0 154-1 157-2L159-7L159-6C159-4 159-3 159-1C159 5 155 8 149 8C144 8 141 6 140 2L140 2L131 2L131 2C131 11 138 16 149 16C161 16 169 10 169-2C169-4 169-7 169-10ZM149-7C144-7 140-12 140-20C140-28 144-32 150-32C154-32 159-29 159-21L159-20C159-10 155-7 149-7ZM183-11C179-11 177-9 177-5C177-2 179 1 183 1C186 1 189-2 189-5C189-9 186-11 183-11ZM201-53C198-53 196-50 196-47C196-44 198-42 201-42C204-42 207-44 207-47C207-50 204-53 201-53ZM206 0L206-38L196-38L196 0ZM233-39C220-39 213-31 213-19C213-8 220 1 233 1C245 1 253-8 253-19C253-31 245-39 233-39ZM233-6C227-6 223-11 223-19C223-27 227-32 233-32C239-32 242-27 242-19C242-11 239-6 233-6Z"></path></g>
    </svg>
  