<?xml version='1.0' encoding='iso-8859-1'?>
<!DOCTYPE svg PUBLIC '-//W3C//DTD SVG 1.1//EN' 'http://www.w3.org/Graphics/SVG/1.1/DTD/svg11.dtd'>
<svg version="1.1" xmlns="http://www.w3.org/2000/svg" viewBox="0 0 426 426" xmlns:xlink="http://www.w3.org/1999/xlink" enable-background="new 0 0 426 426">
  <g>
    <path d="M416,176.619c5.523,0,10-4.477,10-10s-4.477-10-10-10h-49.152v-26.381H416c5.523,0,10-4.477,10-10s-4.477-10-10-10h-49.152   V69.152c0-5.523-4.477-10-10-10h-41.086V10c0-5.523-4.477-10-10-10s-10,4.477-10,10v49.152H269.38V10c0-5.523-4.477-10-10-10   s-10,4.477-10,10v49.152H223V10c0-5.523-4.477-10-10-10s-10,4.477-10,10v49.152h-26.381V10c0-5.523-4.477-10-10-10s-10,4.477-10,10   v49.152h-26.381V10c0-5.523-4.477-10-10-10s-10,4.477-10,10v49.152H69.152c-5.523,0-10,4.477-10,10v41.086H10   c-5.523,0-10,4.477-10,10s4.477,10,10,10h49.152v26.381H10c-5.523,0-10,4.477-10,10s4.477,10,10,10h49.152V203H10   c-5.523,0-10,4.477-10,10s4.477,10,10,10h49.152v26.381H10c-5.523,0-10,4.477-10,10s4.477,10,10,10h49.152v26.381H10   c-5.523,0-10,4.477-10,10s4.477,10,10,10h49.152v41.086c0,5.523,4.477,10,10,10h41.086V416c0,5.523,4.477,10,10,10s10-4.477,10-10   v-49.152h26.381V416c0,5.523,4.477,10,10,10s10-4.477,10-10v-49.152H203V416c0,5.523,4.477,10,10,10s10-4.477,10-10v-49.152h26.38   V416c0,5.523,4.477,10,10,10s10-4.477,10-10v-49.152h26.381V416c0,5.523,4.477,10,10,10s10-4.477,10-10v-49.152h41.086   c5.523,0,10-4.477,10-10v-41.086H416c5.523,0,10-4.477,10-10s-4.477-10-10-10h-49.152v-26.381H416c5.523,0,10-4.477,10-10   s-4.477-10-10-10h-49.152V223H416c5.523,0,10-4.477,10-10s-4.477-10-10-10h-49.152v-26.381H416z M346.848,203h-8.821   c-5.523,0-10,4.477-10,10s4.477,10,10,10h8.821v26.381h-8.821c-5.523,0-10,4.477-10,10s4.477,10,10,10h8.821v26.381h-8.821   c-5.523,0-10,4.477-10,10s4.477,10,10,10h8.821v31.086h-31.086v-8.821c0-5.523-4.477-10-10-10s-10,4.477-10,10v8.821H269.38v-8.821   c0-5.523-4.477-10-10-10s-10,4.477-10,10v8.821H223v-8.821c0-5.523-4.477-10-10-10s-10,4.477-10,10v8.821h-26.381v-8.821   c0-5.523-4.477-10-10-10s-10,4.477-10,10v8.821h-26.381v-8.821c0-5.523-4.477-10-10-10s-10,4.477-10,10v8.821H79.152v-31.086h8.821   c5.523,0,10-4.477,10-10s-4.477-10-10-10h-8.821v-26.381h8.821c5.523,0,10-4.477,10-10s-4.477-10-10-10h-8.821V223h8.821   c5.523,0,10-4.477,10-10s-4.477-10-10-10h-8.821v-26.381h8.821c5.523,0,10-4.477,10-10s-4.477-10-10-10h-8.821v-26.381h8.821   c5.523,0,10-4.477,10-10s-4.477-10-10-10h-8.821V79.152h31.086v8.821c0,5.523,4.477,10,10,10s10-4.477,10-10v-8.821h26.381v8.821   c0,5.523,4.477,10,10,10s10-4.477,10-10v-8.821H203v8.821c0,5.523,4.477,10,10,10s10-4.477,10-10v-8.821h26.38v8.821   c0,5.523,4.477,10,10,10s10-4.477,10-10v-8.821h26.381v8.821c0,5.523,4.477,10,10,10s10-4.477,10-10v-8.821h31.086v31.086h-8.821   c-5.523,0-10,4.477-10,10s4.477,10,10,10h8.821v26.381h-8.821c-5.523,0-10,4.477-10,10s4.477,10,10,10h8.821V203z"/>
    <path d="m266.774,149.225h-107.549c-5.523,0-10,4.477-10,10v107.55c0,5.523 4.477,10 10,10h107.549c5.523,0 10-4.477 10-10v-107.55c0-5.523-4.477-10-10-10zm-10,107.55h-87.549v-87.55h87.549v87.55z"/>
  </g>
</svg>
