<?xml version="1.0" encoding="iso-8859-1"?>
<!-- Generator: Adobe Illustrator 19.0.0, SVG Export Plug-In . SVG Version: 6.00 Build 0)  -->
<svg version="1.1" id="Layer_1" xmlns="http://www.w3.org/2000/svg" xmlns:xlink="http://www.w3.org/1999/xlink" x="0px" y="0px"
	 viewBox="0 0 512 512" style="enable-background:new 0 0 512 512;" xml:space="preserve">
<g>
	<g>
		<g>
			<path d="M315.475,155.523c-3.357-4.87-10.025-6.095-14.894-2.74c-4.869,3.355-6.096,10.024-2.74,14.893
				c38.163,55.369,61.206,89.91,68.49,102.664c1.977,3.459,5.59,5.399,9.309,5.399c1.8,0,3.626-0.455,5.301-1.411
				c5.136-2.933,6.921-9.475,3.988-14.61C377.346,246.442,353.979,211.386,315.475,155.523z"/>
			<path d="M287.765,115.48c-3.369-4.858-10.042-6.067-14.902-2.697c-4.859,3.37-6.067,10.042-2.697,14.903l0.772,1.112
				c2.08,3.003,5.417,4.612,8.812,4.612c2.103,0,4.229-0.618,6.089-1.906c4.862-3.369,6.073-10.039,2.705-14.901L287.765,115.48z"/>
			<path d="M453.586,325.573c-0.302-47.909-48.229-116.819-94.579-183.464c-3.971-5.708-7.896-11.353-11.736-16.908
				c-0.037-0.054-0.075-0.107-0.114-0.16C301.761,61.874,270.569,14.82,266.134,7.16c-0.177-0.484-0.395-0.974-0.661-1.472
				c-1.816-3.408-5.337-5.572-9.167-5.682c-4.069-0.137-7.877,2.099-9.786,5.694c-0.261,0.493-0.478,0.978-0.652,1.455
				c-4.435,7.657-35.631,54.72-81.025,117.883c-0.039,0.054-0.076,0.107-0.114,0.16c-3.841,5.557-7.767,11.202-11.737,16.911
				c-46.35,66.645-94.276,135.554-94.578,183.463c-1.476,44.935,16.197,88.793,49.773,123.511
				c38.105,39.401,93.331,62.919,147.736,62.918c0.047,0,0.095,0,0.141,0c54.414,0,109.644-23.519,147.75-62.921
				C437.39,414.365,455.062,370.508,453.586,325.573z M237.229,488.66c-34.07-6.663-56.782-21.833-67.505-45.09
				c-19.976-43.33,3.916-105.081,16.618-132.371c25.463,32.02,28.606,56.931,28.632,57.147c0.459,4.512,3.71,8.246,8.118,9.32
				c4.402,1.071,9.011-0.744,11.495-4.54c29.726-45.426,37.505-105.351,39.425-139.395c69.346,75.93,92.189,145.705,64.286,198.111
				C315.42,474.815,264.019,493.903,237.229,488.66z M388.42,434.192c-15.586,16.116-34.367,29.255-54.807,38.791
				c9.533-9.241,17.552-19.733,23.593-31.078c15.854-29.775,18.359-65.254,7.248-102.599
				c-12.991-43.665-44.305-90.532-93.068-139.296c-3.111-3.11-7.807-3.998-11.843-2.246c-4.035,1.755-6.585,5.802-6.43,10.199
				c0.029,0.822,2.211,73.554-24.595,131.844c-6.184-14.624-17.194-34.065-36.699-55.048c-2.325-2.501-5.699-3.745-9.094-3.344
				c-3.391,0.398-6.389,2.39-8.07,5.363c-2.267,4.006-55.157,98.894-24.4,165.709c1.047,2.274,2.186,4.479,3.397,6.631
				c-10.896-7.228-21.024-15.571-30.068-24.922C94.041,403.649,78.5,365.275,79.824,326.14c0.003-0.106,0.005-0.211,0.006-0.318
				c0.17-41.248,48.29-110.439,90.745-171.484c3.962-5.697,7.88-11.331,11.715-16.878c28.003-38.966,49.198-69.895,59.343-84.869
				c5.542-8.178,10.435-15.499,14.367-21.49c3.932,5.992,8.826,13.314,14.367,21.493c10.143,14.969,31.335,45.893,59.342,84.865
				c3.835,5.547,7.753,11.181,11.715,16.878c42.455,61.046,90.576,130.235,90.746,171.485c0,0.106,0.002,0.212,0.006,0.318
				C433.5,365.273,417.961,403.647,388.42,434.192z"/>
			<path d="M307.898,338.94c-5.594,1.919-8.573,8.009-6.654,13.603c7.227,21.07,7.737,39.367,1.515,54.382
				c-5.964,14.395-17.065,23.755-25.327,29.071c-4.973,3.2-6.41,9.827-3.21,14.799c2.046,3.181,5.494,4.915,9.014,4.915
				c1.984,0,3.992-0.551,5.785-1.705c10.831-6.97,25.44-19.374,33.522-38.883c8.28-19.983,7.928-43.376-1.042-69.529
				C319.582,339.999,313.493,337.022,307.898,338.94z"/>
		</g>
	</g>
</g>
<g>
</g>
<g>
</g>
<g>
</g>
<g>
</g>
<g>
</g>
<g>
</g>
<g>
</g>
<g>
</g>
<g>
</g>
<g>
</g>
<g>
</g>
<g>
</g>
<g>
</g>
<g>
</g>
<g>
</g>
</svg>
