<?xml version="1.0" encoding="iso-8859-1"?>
<!-- Generator: Adobe Illustrator 18.1.1, SVG Export Plug-In . SVG Version: 6.00 Build 0)  -->
<svg version="1.1" id="Capa_1" xmlns="http://www.w3.org/2000/svg" xmlns:xlink="http://www.w3.org/1999/xlink" x="0px" y="0px"
	 viewBox="0 0 611.998 611.998" style="enable-background:new 0 0 611.998 611.998;" xml:space="preserve">
<g>
	<path d="M136.122,527.354c75.058,0,136.122-61.065,136.122-136.123c0-0.605-0.015-1.206-0.023-1.809h67.555
		c-0.008,0.603-0.023,1.204-0.023,1.809c0,75.058,61.064,136.123,136.122,136.123s136.123-61.065,136.123-136.123
		c0-4.922-0.27-9.783-0.781-14.571c-0.79-17.062-2.901-47.848-8.524-84.58c-11.495-75.108-31.419-136.354-59.214-182.036
		c-8.946-14.703-24.548-24.157-41.732-25.287c-17.213-1.126-33.941,6.211-44.755,19.641l-19.729,24.501
		c-7.683,9.54-6.176,23.501,3.363,31.182c9.539,7.681,23.5,6.176,31.182-3.364l19.729-24.501c2.449-3.042,5.626-3.308,7.299-3.201
		c1.66,0.109,4.745,0.786,6.752,4.084c26.509,43.567,41.651,99.438,50.294,148.075c-22.474-16.383-50.129-26.067-80.007-26.067
		c-58.86,0-109.109,37.555-128.058,89.959H264.18c-18.949-52.404-69.198-89.959-128.058-89.959
		c-30.037,0-57.827,9.787-80.366,26.329c8.635-48.698,23.784-104.692,50.34-148.337c2.007-3.298,5.092-3.974,6.752-4.084
		c1.674-0.107,4.85,0.159,7.299,3.201l19.729,24.501c7.682,9.541,21.643,11.047,31.182,3.364c9.54-7.683,11.046-21.643,3.364-31.182
		l-19.729-24.501c-10.815-13.43-27.55-20.774-44.755-19.641c-17.185,1.13-32.786,10.583-41.733,25.286
		C40.409,155.727,20.486,216.973,8.99,292.08c-6.876,44.931-8.502,80.973-8.879,93.871c-0.053,1.813-0.081,3.163-0.096,4.022
		c-0.01,0.555-0.014,0.909-0.015,1.038c0,0.021,0.001,0.042,0.001,0.064c0,0.052-0.002,0.104-0.002,0.156
		C-0.001,466.29,61.063,527.354,136.122,527.354z M475.876,299.463c46.733,0,85.416,35.113,91.059,80.342
		c0.334,7.23,0.396,11.403,0.398,11.656c0.011,1.04,0.098,2.06,0.247,3.06C565.841,443.604,525.376,483,475.876,483
		c-50.601,0-91.769-41.167-91.769-91.768S425.275,299.463,475.876,299.463z M44.491,386.233
		c2.604-48.286,42.707-86.771,91.631-86.771c50.601,0,91.769,41.167,91.769,91.768s-41.168,91.768-91.769,91.768
		c-50.573,0-91.722-41.122-91.767-91.684C44.362,390.814,44.395,389.069,44.491,386.233z"/>
</g>
<g>
</g>
<g>
</g>
<g>
</g>
<g>
</g>
<g>
</g>
<g>
</g>
<g>
</g>
<g>
</g>
<g>
</g>
<g>
</g>
<g>
</g>
<g>
</g>
<g>
</g>
<g>
</g>
<g>
</g>
</svg>
