<?xml version="1.0" encoding="iso-8859-1"?>
<!-- Generator: Adobe Illustrator 18.1.1, SVG Export Plug-In . SVG Version: 6.00 Build 0)  -->
<svg version="1.1" id="Capa_1" xmlns="http://www.w3.org/2000/svg" xmlns:xlink="http://www.w3.org/1999/xlink" x="0px" y="0px"
	 viewBox="0 0 612 612" style="enable-background:new 0 0 612 612;" xml:space="preserve">
<g>
	<g>
		<path d="M265.267,193.788c29.384,0,53.29,23.905,53.29,53.29c0,29.384-23.905,53.289-53.29,53.289s-53.29-23.905-53.29-53.289
			C211.977,217.694,235.882,193.788,265.267,193.788z"/>
		<path d="M67.687,502.479c2.347,27.861,27.491,39.706,69.335,32.992c39.884-6.403,59.89,11.861,65.018,33.857
			c0,0,1.488,11.778,2.392,25.149c0.666,9.857,8.833,17.523,18.713,17.523h245.481c10.357,0,18.753-8.396,18.753-18.753v-67.884
			c0-33.429,3.324-83.053,27.298-109.446c66.433-73.137,103.013-169.036,65.913-265.632C537.435,37.92,416.956-12.325,302.562,2.554
			c-41.504,5.398-81.94,19.668-116.84,42.917C122.036,87.896,76.575,158.722,69.928,235.523c-1.95,22.526,8.749,49.804,3.363,71.242
			c-1.085,4.339-6.971,24.576-51.079,68.055c-10.552,10.402-5.448,28.354,8.998,31.647c19.644,4.479,33.171,7.156,35.203,8.317
			C66.413,414.784,66.913,493.289,67.687,502.479z M369.23,179.867l3.024-7.339c-2.495-4.44-4.49-9.197-5.902-14.197l-7.302-3.04
			c-2.55-1.061-4.21-3.552-4.21-6.314v-8.4v-8.4c0-2.762,1.661-5.252,4.21-6.314l7.302-3.041c1.411-5,3.406-9.757,5.901-14.196
			l-3.024-7.339c-1.052-2.553-0.466-5.488,1.487-7.441l5.94-5.94l5.94-5.94c1.953-1.953,4.888-2.54,7.442-1.487l7.339,3.024
			c4.44-2.495,9.197-4.49,14.197-5.902l3.041-7.303c1.061-2.549,3.552-4.21,6.314-4.21h8.4h8.4c2.762,0,5.252,1.661,6.314,4.21
			l3.041,7.303c5,1.411,9.757,3.406,14.197,5.902l7.339-3.024c2.554-1.052,5.489-0.466,7.442,1.487l5.94,5.94l5.94,5.94
			c1.953,1.953,2.54,4.888,1.487,7.441l-3.024,7.339c2.495,4.44,4.49,9.197,5.901,14.196l7.302,3.041
			c2.55,1.061,4.21,3.552,4.21,6.314v8.4v8.4c0,2.761-1.661,5.252-4.21,6.314l-7.302,3.041c-1.411,5-3.406,9.757-5.902,14.196
			l3.024,7.339c1.052,2.553,0.466,5.489-1.487,7.441l-5.94,5.94l-5.94,5.939c-1.953,1.953-4.888,2.54-7.442,1.487l-7.339-3.024
			c-4.44,2.495-9.197,4.49-14.197,5.901l-3.041,7.303c-1.061,2.549-3.552,4.21-6.314,4.21h-8.4h-8.4
			c-2.762,0-5.252-1.661-6.314-4.21l-3.041-7.302c-5-1.411-9.757-3.406-14.197-5.902l-7.339,3.024
			c-2.554,1.052-5.489,0.466-7.442-1.487l-5.94-5.939l-5.94-5.94C368.764,185.356,368.178,182.42,369.23,179.867z M163.142,235.561
			c0-3.786,2.277-7.201,5.772-8.656l10.011-4.168c1.935-6.855,4.67-13.377,8.091-19.464l-4.146-10.062
			c-1.443-3.501-0.638-7.526,2.039-10.202l8.143-8.144l8.143-8.143c2.677-2.677,6.702-3.482,10.203-2.039l10.062,4.146
			c6.087-3.421,12.608-6.156,19.463-8.091l4.168-10.012c1.455-3.495,4.87-5.772,8.657-5.772h11.516h11.517
			c3.786,0,7.201,2.277,8.656,5.772l4.169,10.012c6.855,1.935,13.376,4.67,19.463,8.091l10.062-4.146
			c3.501-1.443,7.526-0.638,10.203,2.039l8.143,8.143l8.144,8.144c2.677,2.677,3.481,6.702,2.039,10.202l-4.146,10.062
			c3.421,6.087,6.156,12.608,8.091,19.464l10.011,4.168c3.496,1.455,5.772,4.87,5.772,8.656v11.516v11.517
			c0,3.786-2.277,7.201-5.772,8.656l-10.011,4.168c-1.935,6.855-4.67,13.377-8.091,19.464l4.146,10.061
			c1.443,3.501,0.638,7.526-2.039,10.203l-8.143,8.143l-8.143,8.143c-2.677,2.677-6.702,3.481-10.202,2.039l-10.062-4.146
			c-6.087,3.421-12.608,6.156-19.464,8.091l-4.169,10.012c-1.455,3.496-4.87,5.772-8.656,5.772h-11.517H253.75
			c-3.786,0-7.201-2.277-8.656-5.772l-4.168-10.011c-6.855-1.935-13.377-4.67-19.464-8.091l-10.061,4.146
			c-3.501,1.443-7.526,0.638-10.203-2.039l-8.143-8.143l-8.143-8.143c-2.677-2.677-3.482-6.702-2.039-10.203l4.146-10.061
			c-3.421-6.087-6.156-12.609-8.091-19.464l-10.011-4.168c-3.495-1.455-5.772-4.87-5.772-8.656v-11.516L163.142,235.561
			L163.142,235.561z"/>
		<path d="M429.328,101.709c21.432,0,38.869,17.436,38.869,38.869c0,21.432-17.436,38.868-38.869,38.868
			s-38.869-17.436-38.869-38.868C390.459,119.146,407.895,101.709,429.328,101.709z"/>
	</g>
</g>
<g>
</g>
<g>
</g>
<g>
</g>
<g>
</g>
<g>
</g>
<g>
</g>
<g>
</g>
<g>
</g>
<g>
</g>
<g>
</g>
<g>
</g>
<g>
</g>
<g>
</g>
<g>
</g>
<g>
</g>
</svg>
